<svg xmlns="http://www.w3.org/2000/svg" viewBox="0 0 880 490" font-family="monospace" font-size="13">
<title>projection-map</title>
<rect x="20" y="30" width="190" height="54" fill="none" stroke="#000"/>
<text x="34" y="63">OSIL-SIR</text>
<rect x="20" y="150" width="190" height="54" fill="none" stroke="#000"/>
<text x="34" y="183">OSIL-CIR</text>
<rect x="20" y="270" width="190" height="54" fill="none" stroke="#000"/>
<text x="34" y="303">OSIL-NATIVE</text>
<rect x="630" y="30" width="230" height="54" fill="none" stroke="#000"/>
<text x="644" y="54">c</text>
<text x="644" y="72" font-size="11">via C</text>
<polyline points="210,177 630,57" fill="none" stroke="#000"/>
<text x="240" y="111" font-size="11">preserve execution · 4/4 pass</text>
<rect x="630" y="120" width="230" height="54" fill="none" stroke="#000"/>
<text x="644" y="144">egglog</text>
<text x="644" y="162" font-size="11">via EGraph</text>
<polyline points="210,57 630,147" fill="none" stroke="#000"/>
<text x="240" y="96" font-size="11">preserve equivalence · 4/4 pass</text>
<rect x="630" y="210" width="230" height="54" fill="none" stroke="#000" stroke-dasharray="5 4"/>
<text x="644" y="234">native</text>
<text x="644" y="252" font-size="11">via Identity</text>
<polyline points="210,297 630,237" fill="none" stroke="#000" stroke-dasharray="5 4"/>
<text x="240" y="261" font-size="11">preserve everything · uncontracted</text>
<rect x="630" y="300" width="230" height="54" fill="none" stroke="#000" stroke-dasharray="5 4"/>
<text x="644" y="324">mlir</text>
<text x="644" y="342" font-size="11">via MLIR</text>
<polyline points="210,177 630,327" fill="none" stroke="#000" stroke-dasharray="5 4"/>
<text x="240" y="246" font-size="11">preserve execution · uncontracted</text>
<rect x="630" y="390" width="230" height="54" fill="none" stroke="#000"/>
<text x="644" y="414">onnx</text>
<text x="644" y="432" font-size="11">via ONNX</text>
<polyline points="210,177 630,417" fill="none" stroke="#000"/>
<text x="240" y="291" font-size="11">preserve computation · 4/4 pass</text>
</svg>
